<svg width="1748" height="1673" xmlns="http://www.w3.org/2000/svg" xmlns:xlink="http://www.w3.org/1999/xlink" xml:space="preserve" overflow="hidden"><defs><clipPath id="clip0"><rect x="1326" y="401" width="1748" height="1673"/></clipPath><clipPath id="clip1"><rect x="1622" y="693" width="1243" height="1203"/></clipPath><clipPath id="clip2"><rect x="1622" y="693" width="1243" height="1203"/></clipPath></defs><g clip-path="url(#clip0)" transform="translate(-1326 -401)"><path d="M0 0-222.984 0-222.984-181.165-594.27-181.165-594.27-558.902-873.569-558.902-873.569-1113.63-594.27-1113.63-594.27-1491.44-222.984-1491.44-222.984-1672.08-26.412-1672.08C432.914-1672.08 838.125-1301.32 838.125-838.125 838.125-378.116 460.085 0 0 0" fill="#E42A20" transform="matrix(1 0 0 1.0006 2217.84 2074.08)"/><g clip-path="url(#clip1)"><g clip-path="url(#clip2)"><g><path d="M1567.16 852.295C1590.27 888.471 1612.84 923.98 1635.66 959.335 1639.66 965.547 1641.41 971.847 1641.34 979.244 1641.03 1014.64 1641.32 1050.04 1640.88 1085.44 1640.76 1094.96 1643.14 1102.62 1649 1110.35 1688.24 1162.03 1726.8 1214.22 1766.15 1265.82 1773.2 1275.07 1774.36 1282.83 1767.9 1292.24 1763.01 1299.37 1759.85 1308.18 1753.71 1313.84 1735.3 1330.78 1730.49 1353.31 1726.46 1376.02 1723.8 1390.94 1717.46 1401.65 1704.37 1409.93 1687.12 1420.83 1670.31 1432.75 1654.81 1445.99 1640.08 1458.56 1623.32 1463.2 1605.02 1463.94 1592.9 1464.43 1585.62 1468.99 1581.63 1480.98 1577.31 1493.98 1570.71 1506.22 1565.61 1518.99 1562.99 1525.54 1558.59 1528.67 1551.91 1530.29 1502.7 1542.19 1453.5 1554.14 1404.42 1566.57 1396.68 1568.53 1391.85 1566.8 1387.1 1560.87 1372.32 1542.47 1356.87 1524.61 1342.45 1505.95 1337.09 1499.02 1332.37 1498.49 1324.49 1501.03 1263.17 1520.76 1201.65 1539.88 1140.3 1559.5 1132.36 1562.04 1125.5 1562.33 1117.77 1558.64 1102.52 1551.37 1086.43 1545.8 1071.48 1538 1060.41 1532.24 1053.54 1533.98 1045.47 1543.35 1019.31 1573.74 992.19 1603.3 965.672 1633.38 961.589 1638.02 957.048 1641.08 951.281 1642.98 824.028 1684.79 696.798 1726.68 569.535 1768.46 567.12 1769.26 564.651 1771.38 561.616 1769.48 561.165 1765.7 564.418 1765.53 566.648 1764.48 684.517 1709.36 802.327 1654.11 920.375 1599.38 932.727 1593.65 941.51 1584.71 950.276 1575.21 978.276 1544.86 1006.36 1514.59 1034.05 1483.97 1039.93 1477.46 1045.39 1475.95 1053.65 1479.09 1077.15 1488.02 1100.99 1496.06 1124.57 1504.8 1132.68 1507.8 1140.2 1508.01 1148.6 1505.42 1213.14 1485.48 1277.85 1466.07 1342.37 1446.04 1351.21 1443.3 1356.73 1444.77 1362.79 1451.8 1378.7 1470.27 1395.56 1487.9 1411.76 1506.13 1416.5 1511.46 1421.67 1513.2 1428.49 1511.78 1458.06 1505.65 1487.61 1499.44 1517.27 1493.78 1523.57 1492.58 1526.87 1489.73 1529.04 1484.01 1535.46 1467.11 1542.49 1450.44 1548.73 1433.48 1551.05 1427.18 1554.82 1424.02 1561.2 1422.62 1574.23 1419.77 1587.01 1415.65 1600.13 1413.46 1626.27 1409.09 1649.25 1397.63 1671.41 1383.92 1672.74 1383.09 1674.23 1382.46 1675.44 1381.48 1682.48 1375.75 1692.65 1327.2 1688.25 1319.13 1682.22 1308.09 1676.06 1297.11 1669.48 1286.39 1665.55 1280 1666.18 1276.17 1673.15 1272.42 1685.21 1265.93 1697.82 1260.21 1708.51 1251.23 1708.93 1245.69 1704.64 1242.73 1701.93 1239.17 1670.7 1198.2 1639.45 1157.24 1607.88 1116.53 1602.05 1109.01 1599.17 1101.47 1599.34 1091.77 1599.88 1060.32 1599.45 1028.85 1599.71 997.383 1599.77 990.359 1597.9 984.507 1594.03 978.689 1557.43 923.692 1520.87 868.666 1484.7 813.392 1479.17 804.952 1472.25 799.981 1462.94 796.75 1422.48 782.701 1382.22 768.077 1341.75 754.092 1334.49 751.585 1329.7 747.618 1326.18 740.959 1315.34 720.45 1303.99 700.213 1293.21 679.676 1289.94 673.443 1286.24 670.053 1278.6 670.721 1239.89 674.113 1201.15 677.221 1162.4 680.103 1156.48 680.545 1153.18 683.335 1150.34 687.97 1140.49 704.068 1130.54 720.101 1120.49 736.073 1118.03 739.977 1117.77 743.548 1118.61 748.234 1121.21 762.752 1127.06 776.741 1126.75 793.712 922.632 779.583 719.294 765.509 515.335 751.389 516.546 746.768 519.251 747.526 521.177 747.471 577.359 745.828 633.549 744.438 689.724 742.647 774.959 739.93 860.19 737.126 945.409 733.961 970.157 733.04 994.93 734.069 1019.69 731.985 1028.91 731.211 1034.77 727.782 1040.32 720.925 1064.31 691.268 1088.83 662.042 1112.79 632.364 1118.41 625.41 1124.36 622.519 1133.59 622.014 1190.43 618.905 1247.23 615.042 1304.01 611.062 1312.08 610.496 1317.21 612.672 1321.52 619.647 1338.49 647.066 1356.12 674.068 1373.02 701.528 1377.81 709.319 1383.67 714.281 1392.33 717.5 1428.42 730.918 1464.23 745.111 1500.26 758.706 1506.89 761.208 1511.58 765.018 1515.34 770.985 1532.29 797.951 1549.55 824.729 1567.16 852.295Z" stroke="#FFFFFF" stroke-width="36.7353" fill="#FFFFFF" transform="matrix(1 0 0 1.00016 1067.35 105.545)"/></g></g></g></g></svg>